<?xml version="1.0" encoding="utf-8"?>
<!-- Generator: Adobe Illustrator 21.1.0, SVG Export Plug-In . SVG Version: 6.00 Build 0)  -->
<svg version="1.1" id="Capa_1" xmlns="http://www.w3.org/2000/svg" xmlns:xlink="http://www.w3.org/1999/xlink" x="0px" y="0px"
	 viewBox="0 0 504 504" style="enable-background:new 0 0 504 504;" xml:space="preserve">
<style type="text/css">
	.st0{fill:#FEAF77;}
	.st1{fill:#64989A;}
	.st2{fill:#FED987;}
	.st3{fill:#192F32;}
</style>
<path class="st0" d="M252,13.6c-145.3,0-263.2,113.8-263.2,254.2h526.3C515.2,127.4,397.3,13.6,252,13.6z"/>
<path class="st1" d="M252,522.1c145.3,0,263.2-113.8,263.2-254.2H-11.2C-11.2,408.3,106.7,522.1,252,522.1z"/>
<path class="st2" d="M252,128.6c-79.6,0-144.2,62.4-144.2,139.3h288.3C396.2,190.9,331.6,128.6,252,128.6z"/>
<path class="st3" d="M55.6,300.8c13.1,0,26.2,0,39.3,0c31.3,0,62.5,0,93.8,0c38,0,76,0,114,0c32.8,0,65.7,0,98.5,0
	c10.8,0,21.6,0,32.3,0c5.1,0,10.4,0.4,15.4,0c0.2,0,0.5,0,0.7,0c1,0,3.1-1.5,1.2-1.5c-13.1,0-26.2,0-39.3,0c-31.3,0-62.5,0-93.8,0
	c-38,0-76,0-114,0c-32.8,0-65.7,0-98.5,0c-10.8,0-21.6,0-32.3,0c-5.1,0-10.4-0.4-15.4,0c-0.2,0-0.5,0-0.7,0
	C55.7,299.2,53.6,300.8,55.6,300.8L55.6,300.8z"/>
<path class="st3" d="M82.1,342.8c38.3,0,76.6,0,114.9,0c60.7,0,121.4,0,182,0c14,0,28,0,42,0c1,0,3.1-1.5,1.2-1.5
	c-38.3,0-76.6,0-114.9,0c-60.7,0-121.4,0-182,0c-14,0-28,0-42,0C82.2,341.2,80.1,342.8,82.1,342.8L82.1,342.8z"/>
<path class="st3" d="M107.3,384.8c31.9,0,63.8,0,95.6,0c51,0,102,0,153,0c11.7,0,23.3,0,35,0c1,0,3.1-1.5,1.2-1.5
	c-31.9,0-63.8,0-95.6,0c-51,0-102,0-153,0c-11.7,0-23.3,0-35,0C107.4,383.2,105.3,384.8,107.3,384.8L107.3,384.8z"/>
<path class="st3" d="M149.7,426.8c22.6,0,45.2,0,67.7,0c36,0,71.9,0,107.9,0c8.2,0,16.4,0,24.7,0c1,0,3.1-1.5,1.2-1.5
	c-22.6,0-45.2,0-67.7,0c-36,0-71.9,0-107.9,0c-8.2,0-16.4,0-24.7,0C149.8,425.2,147.7,426.8,149.7,426.8L149.7,426.8z"/>
<path class="st3" d="M180.9,468.8c41.1,0,82.2,0,123.3,0c5.9,0,11.8,0,17.7,0c1,0,3.1-1.5,1.2-1.5c-41.1,0-82.2,0-123.3,0
	c-5.9,0-11.8,0-17.7,0C181.1,467.2,179,468.8,180.9,468.8L180.9,468.8z"/>
</svg>
