<?xml version="1.0" encoding="UTF-8"?>
<svg viewBox="0 0 207 216" xmlns="http://www.w3.org/2000/svg">
 <path d="m77.535 134.83 10.769 6.4912 0.43545 12.622-13.68 6.928 4.628 10.605 16.302-9.0493 0.41565 14.661-13.298 8.5072 5.6545 8.7714 13.521-9.4199 12.43 8.7121 6.0789-8.7557-11.519-7.4224-0.08316-14.43 14.351 8.0747 5.5586-8.9527-12.381-7.3638 0.51122-12.211 10.931-6.0442" fill="#fff" fill-rule="evenodd" stroke="#87cdde" stroke-width="5"/>
 <path transform="matrix(.98411 -.17757 .17757 .98411 -14.331 21.665)" d="m95.406 144.64-32.641-25.896 6.106-41.216 38.747-15.32 32.641 25.896-6.106 41.216-38.747 15.32z" fill="#fff"/>
 <path d="m130.55 75.632-10.769-6.4912-0.43545-12.622 13.68-6.928-4.628-10.605-16.302 9.0493-0.41565-14.661 13.298-8.5072-5.6545-8.7714-13.521 9.4199-12.43-8.7121-6.0789 8.7557 11.519 7.4224 0.08316 14.43-14.351-8.0747-5.5586 8.9527 12.381 7.3638-0.32343 12.177-9.9058 5.2775" fill="#fff" fill-rule="evenodd" stroke="#87cdde" stroke-width="5"/>
 <path d="m91.658 67.478-11.006 6.0807-11.148-5.9336 0.84009-15.311-11.498-1.2943-0.31427 18.643-12.905-6.9705-0.71848-15.77-10.423 0.51126 1.3974 16.419-13.76 6.4087 4.5432 9.6424 12.187-6.2643 12.538 7.143-14.168 8.391 4.9739 9.2903 12.568-7.0401 10.642 6.5157-0.41608 12.288" fill="#fff" fill-rule="evenodd" stroke="#87cdde" stroke-width="5"/>
 <path d="m116.42 142.99 11.006-6.0807 11.148 5.9336-0.84009 15.311 11.498 1.2943 0.31427-18.643 12.905 6.9705 0.71848 15.77 10.423-0.51126-1.3974-16.419 13.76-6.4087-4.5432-9.6424-12.187 6.2644-12.538-7.143 14.168-8.391-4.9739-9.2903-12.568 7.0401-10.454-6.5496 0.31443-12.851" fill="#fff" fill-rule="evenodd" stroke="#87cdde" stroke-width="5"/>
 <path d="m63.542 82.002 82.23 49.535" fill="none" stroke="#87cdde" stroke-linecap="round" stroke-width="6"/>
 <path d="m142.93 113.39 0.23703-12.572 10.713-6.6878 12.84 8.383 6.8699-9.3103-15.988-9.5936 12.489-7.6904 14.016 7.2627 4.769-9.2826-14.918-6.9995 1.3299-15.121-10.622-0.88665-0.66858 13.687-12.455 7.2871-0.1826-16.466-10.533-0.3376-0.18687 14.404-11.375 5.541-10.207-6.6872" fill="#fff" fill-rule="evenodd" stroke="#87cdde" stroke-width="5"/>
 <path d="m105.12 56.662-2.6242 99.36" fill="none" stroke="#87cdde" stroke-linecap="round" stroke-width="6"/>
 <path d="m65.152 97.079-0.23703 12.572-10.713 6.6879-12.84-8.383-6.8699 9.3103 15.988 9.5936-12.489 7.6904-14.016-7.2627-4.769 9.2826 14.918 6.9995-1.3299 15.121 10.622 0.88665 0.66859-13.687 12.455-7.2871 0.18261 16.466 10.533 0.3376 0.18686-14.404 10.898-6.0366 9.9853 6.5333" fill="#fff" fill-rule="evenodd" stroke="#87cdde" stroke-width="5"/>
 <path d="m62.248 130.71 84.818-47.879" fill="none" stroke="#87cdde" stroke-linecap="round" stroke-width="6"/>
 <path transform="matrix(.98411 -.17757 .17757 .98411 -16.438 21.297)" d="m127.84 126.7-31.381 10.085-24.424-22.134 6.9568-32.219 31.381-10.085 24.424 22.134-6.9568 32.219z" fill="#fff" stroke="#87cdde" stroke-width="6"/>
 <path transform="matrix(.98411 -.17757 .17757 .98411 -17.033 20.147)" d="m118.3 117.92-18.157 6.2621-14.502-12.594 3.6555-18.856 18.157-6.2621 14.502 12.594-3.6555 18.856z" fill="#fff" stroke="#87cdde" stroke-width="6"/>
</svg>
