<svg height="448pt" viewBox="0 0 448 448" width="448pt" xmlns="http://www.w3.org/2000/svg"><path d="m448 392c0 30.929688-25.070312 56-56 56s-56-25.070312-56-56 25.070312-56 56-56 56 25.070312 56 56zm0 0" fill="#985713"/><g fill="#834b10"><path d="m405.136719 337.601562c-18.738281-4.566406-38.507813.847657-52.304688 14.328126-13.792969 13.480468-19.667969 33.117187-15.535156 51.957031 27.222656-16.824219 50.386719-39.460938 67.839844-66.285157zm0 0"/><path d="m424 376c0 8.835938-7.164062 16-16 16s-16-7.164062-16-16 7.164062-16 16-16 16 7.164062 16 16zm0 0"/><path d="m360 384h16v16h-16zm0 0"/><path d="m384 408h16v16h-16zm0 0"/></g><path d="m432 216c0 119.292969-96.707031 216-216 216s-216-96.707031-216-216 96.707031-216 216-216 216 96.707031 216 216zm0 0" fill="#dc4d41"/><path d="m408 200c.046875-67.164062-31.210938-130.515625-84.542969-171.34375-98.589843-56.257812-223.902343-26.609375-286.828125 67.863281-62.925781 94.472657-41.992187 221.53125 47.914063 290.824219 66.839843 38.359375 149.050781 38.195312 215.734375-.429688 66.6875-38.621093 107.738281-109.851562 107.722656-186.914062zm0 0" fill="#f55648"/><path d="m426.585938 168c-10.199219-44.695312-34.359376-84.984375-68.984376-115.03125l-23.328124-1.664062c-30.597657-2.183594-61.339844 1.214843-90.722657 10.023437-23.578125 7.078125-48.0625 10.671875-72.679687 10.671875h-115.824219c-20.710937 23.089844-36.199219 50.378906-45.398437 80h66.574218c12.898438 0 25.503906-3.816406 36.234375-10.96875 19.503907-13.003906 44.480469-14.5625 65.445313-4.078125l48.304687 24.152344c9.070313 4.535156 19.074219 6.894531 29.21875 6.894531h171.199219zm0 0" fill="#c9463c"/><path d="m349.601562 52.398438-15.328124-1.09375c-30.597657-2.183594-61.339844 1.214843-90.722657 10.023437-23.578125 7.078125-48.0625 10.671875-72.679687 10.671875h-115.824219c-2.460937 2.742188-4.839844 5.601562-7.160156 8.425781-.320313.398438-.628907.796875-.949219 1.214844-1.96875 2.46875-3.886719 4.984375-5.753906 7.550781-.464844.640625-.917969 1.296875-1.382813 1.945313-1.664062 2.351562-3.285156 4.734375-4.863281 7.144531-.539062.796875-1.058594 1.597656-1.601562 2.460938-1.449219 2.296874-2.855469 4.632812-4.222657 6.984374-.546875.929688-1.089843 1.859376-1.601562 2.792969-1.296875 2.3125-2.542969 4.664063-3.75 7.023438-.515625.992187-1.035157 1.976562-1.53125 2.976562-1.191407 2.402344-2.328125 4.871094-3.429688 7.34375-.425781.953125-.878906 1.898438-1.289062 2.855469-1.191407 2.769531-2.304688 5.601562-3.382813 8.402344-.257812.679687-.554687 1.351562-.800781 2.039062-1.320313 3.566406-2.558594 7.199219-3.6875 10.839844h66.574219c12.894531 0 25.503906-3.816406 36.234375-10.96875 19.503906-13.003906 44.480469-14.5625 65.445312-4.078125l48.304688 24.152344c9.074219 4.535156 19.082031 6.894531 29.226562 6.894531h150.125c-6.449219-43.332031-25.96875-83.660156-55.949219-115.601562zm0 0" fill="#dc4d41"/><path d="m312 104c0 13.253906-10.746094 24-24 24s-24-10.746094-24-24 10.746094-24 24-24 24 10.746094 24 24zm0 0" fill="#bb4137"/><path d="m376.953125 360c15.589844-17.394531 28.253906-37.203125 37.503906-58.65625-4.296875-1.308594-8.375-3.242188-12.105469-5.742188l-44.902343-31.121093c-8.777344-5.707031-19.0625-8.660157-29.527344-8.480469h-49.234375c-14.25-.710938-28.027344 5.195312-37.34375 16s-23.09375 16.707031-37.34375 16h-26.152344c-10.46875-.179688-20.75 2.773438-29.527344 8.480469l-8.566406 5.933593c-9.890625 6.363282-21.59375 9.300782-33.3125 8.363282l-54.296875-3.425782c-10.761719-.679687-21.542969-.945312-32.335937-1 13.136718 28.433594 32.28125 53.679688 56.113281 74l70.398437-3.0625c19.75-.855468 39.363282-3.699218 58.542969-8.488281 23.339844-5.839843 47.304688-8.792969 71.359375-8.800781zm0 0" fill="#c9463c"/><path d="m357.449219 264.480469c-8.777344-5.707031-19.0625-8.660157-29.527344-8.480469h-49.234375c-14.25-.710938-28.027344 5.195312-37.34375 16s-23.09375 16.707031-37.34375 16h-26.152344c-10.46875-.179688-20.75 2.773438-29.527344 8.480469l-8.566406 5.933593c-9.890625 6.363282-21.59375 9.300782-33.3125 8.363282l-54.296875-3.425782c-10.746093-.679687-21.511719-.9375-32.28125-1 .296875.648438.601563 1.296876.90625 1.9375 1.191407 2.511719 2.398438 5.015626 3.703125 7.472657.574219 1.109375 1.175782 2.199219 1.773438 3.292969 1.289062 2.402343 2.59375 4.714843 4 7.015624.691406 1.160157 1.410156 2.296876 2.113281 3.433594 1.359375 2.199219 2.738281 4.390625 4.175781 6.535156.800782 1.207032 1.65625 2.402344 2.488282 3.578126 1.417968 2.03125 2.847656 4.054687 4.335937 6.03125.9375 1.246093 1.921875 2.457031 2.878906 3.6875 1.472657 1.863281 2.929688 3.726562 4.457031 5.542968 1.074219 1.273438 2.191407 2.503906 3.289063 3.753906 1.503906 1.703126 3 3.421876 4.558594 5.085938 1.199219 1.273438 2.449219 2.503906 3.679687 3.753906 1.539063 1.597656 3.066406 3.144532 4.648438 4.65625 1.328125 1.269532 2.714844 2.480469 4.082031 3.71875 1.597656 1.417969 3.101563 2.863282 4.710937 4.242188l.320313.261718 70.328125-3.0625c19.753906-.855468 39.371094-3.699218 58.550781-8.488281 23.339844-5.839843 47.304688-8.792969 71.359375-8.800781h60.882813c22.488281-20.410156 40.429687-45.328125 52.65625-73.128906zm0 0" fill="#e24f43"/><path d="m176 216c0 22.089844-17.910156 40-40 40s-40-17.910156-40-40 17.910156-40 40-40 40 17.910156 40 40zm0 0" fill="#dc4d41"/><path d="m312 312c0 8.835938-7.164062 16-16 16s-16-7.164062-16-16 7.164062-16 16-16 16 7.164062 16 16zm0 0" fill="#c14339"/></svg>